<svg width="131" height="40" viewBox="0 0 131 40" fill="none" xmlns="http://www.w3.org/2000/svg">
<path d="M16.7427 34.065V39.458H3.32284V34.065H16.7427ZM4.60791 0V39.458H0V0H4.60791Z" fill="white"/>
<path d="M50.5931 33.5772V19.5935C50.5931 18.5456 50.4646 17.6423 50.2076 16.8835C49.9506 16.1247 49.559 15.5375 49.0327 15.122C48.5187 14.7064 47.87 14.4986 47.0867 14.4986C46.3646 14.4986 45.7404 14.6793 45.2142 15.0407C44.6879 15.402 44.2779 15.8898 43.9842 16.5041C43.6904 17.1183 43.5436 17.8139 43.5436 18.5908H39.1376C39.1376 17.4345 39.3273 16.3144 39.7067 15.2304C40.0861 14.1463 40.6369 13.1798 41.359 12.3306C42.081 11.4815 42.9439 10.813 43.9475 10.3252C44.951 9.8374 46.077 9.5935 47.3254 9.5935C48.8185 9.5935 50.1403 9.96387 51.2907 10.7046C52.4534 11.4453 53.3652 12.5655 54.0261 14.065C54.6993 15.5465 55.0358 17.4074 55.0358 19.6477V32.6829C55.0358 34.0199 55.097 35.2213 55.2194 36.2873C55.354 37.3351 55.5437 38.2475 55.7885 39.0244V39.458H51.254C51.046 38.7534 50.8807 37.8591 50.7584 36.7751C50.6482 35.673 50.5931 34.607 50.5931 33.5772ZM51.2357 21.626L51.2724 25.664H48.0964C47.2764 25.664 46.5543 25.7814 45.9301 26.0163C45.306 26.2331 44.7858 26.5583 44.3697 26.9919C43.9536 27.4255 43.6415 27.9494 43.4334 28.5637C43.2254 29.178 43.1213 29.8735 43.1213 30.6504C43.1213 31.4273 43.2437 32.1409 43.4885 32.7913C43.7333 33.4237 44.0882 33.9205 44.5533 34.2818C45.0306 34.6432 45.6058 34.8238 46.279 34.8238C47.1846 34.8238 47.974 34.5528 48.6472 34.0108C49.3325 33.4508 49.871 32.7733 50.2627 31.9783C50.6543 31.1653 50.8624 30.3975 50.8869 29.6748L52.3188 32.5745C52.1719 33.3153 51.921 34.1102 51.5661 34.9594C51.2112 35.8085 50.7461 36.6215 50.1709 37.3984C49.6079 38.1572 48.9287 38.7805 48.1331 39.2683C47.3498 39.7561 46.4442 40 45.4161 40C44.1188 40 42.9622 39.6206 41.9464 38.8618C40.9306 38.0849 40.1351 37.0461 39.5599 35.7453C38.9846 34.4264 38.697 32.9359 38.697 31.2737C38.697 29.72 38.8928 28.3469 39.2845 27.1545C39.6884 25.944 40.2758 24.9322 41.0469 24.1192C41.8302 23.3062 42.7848 22.692 43.9107 22.2764C45.0367 21.8428 46.3218 21.626 47.766 21.626H51.2357Z" fill="white"/>
<path d="M64.3183 16.3957V39.458H59.8939V10.1355H64.0612L64.3183 16.3957ZM63.5289 23.7127L62.0969 23.6856C62.1092 21.6079 62.305 19.7019 62.6844 17.9675C63.076 16.2331 63.6145 14.7425 64.2999 13.4959C64.9975 12.2493 65.8298 11.2918 66.7966 10.6233C67.7635 9.93677 68.8405 9.5935 70.0277 9.5935C70.9823 9.5935 71.8451 9.79223 72.6162 10.1897C73.3995 10.5691 74.0665 11.1924 74.6172 12.0596C75.1802 12.9268 75.6086 14.056 75.9023 15.4472C76.196 16.8202 76.3429 18.5095 76.3429 20.5149V39.458H71.9002V20.4878C71.9002 19.0786 71.7595 17.9675 71.478 17.1545C71.2087 16.3234 70.8109 15.7362 70.2847 15.393C69.7706 15.0316 69.1281 14.8509 68.3571 14.8509C67.5983 14.8509 66.919 15.0858 66.3193 15.5556C65.7196 16.0253 65.2117 16.6667 64.7956 17.4797C64.3917 18.2927 64.0796 19.2322 63.8593 20.2981C63.639 21.364 63.5289 22.5023 63.5289 23.7127Z" fill="white"/>
<path d="M83.4407 0H87.5529L95.2817 30.4336L102.992 0H107.104L96.8973 39.458H93.6295L83.4407 0ZM81.5682 0H85.4785L86.1577 26.3415V39.458H81.5682V0ZM105.067 0H108.995V39.458H104.387V26.3415L105.067 0Z" fill="white"/>
<path d="M123.051 40C121.582 40 120.254 39.6477 119.067 38.9431C117.892 38.2204 116.889 37.2177 116.056 35.935C115.236 34.6522 114.606 33.1436 114.166 31.4092C113.725 29.6748 113.505 27.8049 113.505 25.7995V24.7154C113.505 22.421 113.731 20.3433 114.184 18.4824C114.637 16.6215 115.267 15.0316 116.075 13.7127C116.883 12.3758 117.837 11.355 118.939 10.6504C120.04 9.9458 121.233 9.5935 122.519 9.5935C123.938 9.5935 125.18 9.9458 126.245 10.6504C127.31 11.355 128.191 12.3487 128.889 13.6314C129.599 14.8961 130.125 16.4047 130.468 18.1572C130.823 19.9097 131 21.8428 131 23.9566V26.748H115.653V22.0596H126.631V21.5447C126.606 20.3704 126.447 19.2683 126.153 18.2385C125.872 17.2087 125.437 16.3776 124.85 15.7453C124.263 15.1129 123.479 14.7967 122.5 14.7967C121.766 14.7967 121.111 15.0316 120.536 15.5014C119.973 15.953 119.502 16.6125 119.122 17.4797C118.743 18.3469 118.449 19.3948 118.241 20.6233C118.045 21.8338 117.947 23.1978 117.947 24.7154V25.7995C117.947 27.0822 118.064 28.2746 118.296 29.3767C118.541 30.4607 118.896 31.4092 119.361 32.2222C119.826 33.0352 120.389 33.6766 121.05 34.1463C121.711 34.598 122.463 34.8238 123.308 34.8238C124.373 34.8238 125.321 34.5077 126.153 33.8753C126.986 33.243 127.708 32.3487 128.32 31.1924L130.651 34.5257C130.223 35.4472 129.666 36.3324 128.981 37.1816C128.295 38.0126 127.457 38.6902 126.466 39.2141C125.486 39.738 124.348 40 123.051 40Z" fill="white"/>
<path d="M33.8452 25.5827C33.8452 33.2458 29.6369 39.458 24.4458 39.458C19.2546 39.458 15.0464 33.2458 15.0464 25.5827C15.0464 17.9195 19.2546 11.7073 24.4458 11.7073C29.6369 11.7073 33.8452 17.9195 33.8452 25.5827Z" fill="#D9D9D9"/>
</svg>
